# This file uses centimeters as units for non-parametric coordinates.

mtllib BoostModule01.mtl
g default
v 0.223042 0.122256 -1.403040
v 0.163278 0.225770 -1.403040
v 0.059764 0.285534 -1.403040
v -0.059764 0.285534 -1.403040
v -0.163278 0.225770 -1.403040
v -0.223042 0.122256 -1.403040
v -0.223042 0.002728 -1.403040
v -0.163278 -0.100786 -1.403040
v -0.059764 -0.160550 -1.403040
v 0.059764 -0.160550 -1.403040
v 0.163278 -0.100786 -1.403040
v 0.223042 0.002728 -1.403040
v 0.223042 0.122256 -0.959728
v 0.163278 0.225770 -0.959728
v 0.059764 0.285534 -0.959728
v -0.059764 0.285534 -0.959728
v -0.163278 0.225770 -0.959728
v -0.223042 0.122256 -0.959728
v -0.223042 0.002728 -0.959728
v -0.163278 -0.100786 -0.959728
v -0.059764 -0.160550 -0.959728
v 0.059764 -0.160550 -0.959728
v 0.163278 -0.100786 -0.959728
v 0.223042 0.002728 -0.959728
v 0.304187 0.143998 -0.959728
v 0.222680 0.285172 -0.959728
v 0.081507 0.366678 -0.959728
v -0.081507 0.366678 -0.959728
v -0.222680 0.285172 -0.959728
v -0.304187 0.143998 -0.959728
v -0.304187 -0.019015 -0.959728
v -0.222680 -0.160188 -0.959728
v -0.081507 -0.241695 -0.959728
v 0.081507 -0.241695 -0.959728
v 0.222680 -0.160188 -0.959728
v 0.304187 -0.019015 -0.959728
v 0.304187 0.143998 -1.403040
v 0.222680 0.285172 -1.403040
v 0.081507 0.366678 -1.403040
v -0.081507 0.366678 -1.403040
v -0.222680 0.285172 -1.403040
v -0.304187 0.143998 -1.403040
v -0.304187 -0.019015 -1.403040
v -0.222680 -0.160188 -1.403040
v -0.081507 -0.241695 -1.403040
v 0.081507 -0.241695 -1.403040
v 0.222680 -0.160188 -1.403040
v 0.304187 -0.019015 -1.403040
vt 0.000000 1.000000
vt 0.083333 1.000000
vt 0.166667 1.000000
vt 0.250000 1.000000
vt 0.333333 1.000000
vt 0.416667 1.000000
vt 0.500000 1.000000
vt 0.583333 1.000000
vt 0.666667 1.000000
vt 0.750000 1.000000
vt 0.833333 1.000000
vt 0.916667 1.000000
vt 0.000000 0.750000
vt 0.083333 0.750000
vt 0.166667 0.750000
vt 0.250000 0.750000
vt 0.333333 0.750000
vt 0.416667 0.750000
vt 0.500000 0.750000
vt 0.583333 0.750000
vt 0.666667 0.750000
vt 0.750000 0.750000
vt 0.833333 0.750000
vt 0.916667 0.750000
vt 0.000000 0.500000
vt 0.083333 0.500000
vt 0.166667 0.500000
vt 0.250000 0.500000
vt 0.333333 0.500000
vt 0.416667 0.500000
vt 0.500000 0.500000
vt 0.583333 0.500000
vt 0.666667 0.500000
vt 0.750000 0.500000
vt 0.833333 0.500000
vt 0.916667 0.500000
vt 0.000000 0.250000
vt 0.083333 0.250000
vt 0.166667 0.250000
vt 0.250000 0.250000
vt 0.333333 0.250000
vt 0.416667 0.250000
vt 0.500000 0.250000
vt 0.583333 0.250000
vt 0.666667 0.250000
vt 0.750000 0.250000
vt 0.833333 0.250000
vt 0.916667 0.250000
vt 0.000000 0.000000
vt 0.083333 0.000000
vt 0.166667 0.000000
vt 0.250000 0.000000
vt 0.333333 0.000000
vt 0.416667 0.000000
vt 0.500000 0.000000
vt 0.583333 0.000000
vt 0.666667 0.000000
vt 0.750000 0.000000
vt 0.833333 0.000000
vt 0.916667 0.000000
vn -0.866026 -0.500000 0.000000
vn -0.866026 -0.500000 0.000000
vn -0.866026 -0.500000 0.000000
vn -0.866026 -0.500000 0.000000
vn 0.000000 -1.000000 0.000000
vn 0.000000 -1.000000 0.000000
vn 0.000000 -1.000000 0.000000
vn 0.000000 -1.000000 0.000000
vn 0.866025 -0.500000 0.000000
vn 0.866025 -0.500000 0.000000
vn 0.866025 -0.500000 0.000000
vn 0.866025 -0.500000 0.000000
vn 0.866026 0.500000 -0.000000
vn 0.866026 0.500000 -0.000000
vn 0.866026 0.500000 -0.000000
vn 0.866026 0.500000 -0.000000
vn -0.000000 1.000000 -0.000000
vn -0.000000 1.000000 -0.000000
vn -0.000000 1.000000 -0.000000
vn -0.000000 1.000000 -0.000000
vn -0.866025 0.500000 -0.000000
vn -0.866025 0.500000 -0.000000
vn -0.866025 0.500000 -0.000000
vn -0.866025 0.500000 -0.000000
vn -0.000000 0.000000 1.000000
vn -0.000000 0.000000 1.000000
vn -0.000000 0.000000 1.000000
vn -0.000000 0.000000 1.000000
vn -0.000000 0.000000 1.000000
vn -0.000000 0.000000 1.000000
vn -0.000000 0.000000 1.000000
vn -0.000000 0.000000 1.000000
vn -0.000000 0.000000 1.000000
vn -0.000000 0.000000 1.000000
vn -0.000000 0.000000 1.000000
vn -0.000000 0.000000 1.000000
vn -0.000000 0.000000 1.000000
vn -0.000000 0.000000 1.000000
vn -0.000000 0.000000 1.000000
vn -0.000000 0.000000 1.000000
vn -0.000000 0.000000 1.000000
vn -0.000000 0.000000 1.000000
vn -0.000000 0.000000 1.000000
vn -0.000000 0.000000 1.000000
vn 0.000000 -0.000000 1.000000
vn 0.000000 -0.000000 1.000000
vn 0.000000 -0.000000 1.000000
vn 0.000000 -0.000000 1.000000
vn 0.866025 0.500000 -0.000000
vn 0.866025 0.500000 -0.000000
vn 0.866025 0.500000 -0.000000
vn 0.866025 0.500000 -0.000000
vn 0.000000 1.000000 -0.000000
vn 0.000000 1.000000 -0.000000
vn 0.000000 1.000000 -0.000000
vn 0.000000 1.000000 -0.000000
vn -0.866025 0.500000 -0.000000
vn -0.866025 0.500000 -0.000000
vn -0.866025 0.500000 -0.000000
vn -0.866025 0.500000 -0.000000
vn -0.866025 -0.500000 0.000000
vn -0.866025 -0.500000 0.000000
vn -0.866025 -0.500000 0.000000
vn -0.866025 -0.500000 0.000000
vn -0.000000 -1.000000 0.000000
vn -0.000000 -1.000000 0.000000
vn -0.000000 -1.000000 0.000000
vn -0.000000 -1.000000 0.000000
vn 0.866025 -0.500000 0.000000
vn 0.866025 -0.500000 0.000000
vn 0.866025 -0.500000 0.000000
vn 0.866025 -0.500000 0.000000
vn 0.000000 -0.000000 -1.000000
vn 0.000000 -0.000000 -1.000000
vn 0.000000 -0.000000 -1.000000
vn 0.000000 -0.000000 -1.000000
vn 0.000000 -0.000000 -1.000000
vn 0.000000 -0.000000 -1.000000
vn 0.000000 -0.000000 -1.000000
vn 0.000000 -0.000000 -1.000000
vn 0.000000 -0.000000 -1.000000
vn 0.000000 -0.000000 -1.000000
vn 0.000000 -0.000000 -1.000000
vn 0.000000 -0.000000 -1.000000
vn 0.000000 -0.000000 -1.000000
vn 0.000000 -0.000000 -1.000000
vn 0.000000 -0.000000 -1.000000
vn 0.000000 -0.000000 -1.000000
vn 0.000000 -0.000000 -1.000000
vn 0.000000 -0.000000 -1.000000
vn 0.000000 -0.000000 -1.000000
vn 0.000000 -0.000000 -1.000000
vn -0.000000 0.000000 -1.000000
vn -0.000000 0.000000 -1.000000
vn -0.000000 0.000000 -1.000000
vn -0.000000 0.000000 -1.000000
vn 0.965926 -0.258819 0.000000
vn 0.965926 -0.258819 0.000000
vn 0.965926 -0.258819 0.000000
vn 0.965926 -0.258819 0.000000
vn -0.965926 -0.258819 -0.000000
vn -0.965926 -0.258819 -0.000000
vn -0.965926 -0.258819 -0.000000
vn -0.965926 -0.258819 -0.000000
vn 0.707107 0.707107 -0.000000
vn 0.707107 0.707107 -0.000000
vn 0.707107 0.707107 -0.000000
vn 0.707107 0.707107 -0.000000
vn -0.258819 -0.965926 0.000000
vn -0.258819 -0.965926 0.000000
vn -0.258819 -0.965926 0.000000
vn -0.258819 -0.965926 0.000000
vn -0.258819 0.965926 -0.000000
vn -0.258819 0.965926 -0.000000
vn -0.258819 0.965926 -0.000000
vn -0.258819 0.965926 -0.000000
vn 0.707107 -0.707107 0.000000
vn 0.707107 -0.707107 0.000000
vn 0.707107 -0.707107 0.000000
vn 0.707107 -0.707107 0.000000
vn -0.965926 0.258819 -0.000000
vn -0.965926 0.258819 -0.000000
vn -0.965926 0.258819 -0.000000
vn -0.965926 0.258819 -0.000000
vn 0.965926 0.258819 0.000000
vn 0.965926 0.258819 0.000000
vn 0.965926 0.258819 0.000000
vn 0.965926 0.258819 0.000000
vn 0.258819 0.965926 -0.000000
vn 0.258819 0.965926 -0.000000
vn 0.258819 0.965926 -0.000000
vn 0.258819 0.965926 -0.000000
vn -0.707107 -0.707107 0.000000
vn -0.707107 -0.707107 0.000000
vn -0.707107 -0.707107 0.000000
vn -0.707107 -0.707107 0.000000
vn 0.258819 -0.965926 0.000000
vn 0.258819 -0.965926 0.000000
vn 0.258819 -0.965926 0.000000
vn 0.258819 -0.965926 0.000000
vn -0.707107 0.707107 -0.000000
vn -0.707107 0.707107 -0.000000
vn -0.707107 0.707107 -0.000000
vn -0.707107 0.707107 -0.000000
s off
g Thruster
usemtl initialShadingGroup
f 2/2/1 1/1/2 13/13/3 14/14/4
f 4/4/5 3/3/6 15/15/7 16/16/8
f 6/6/9 5/5/10 17/17/11 18/18/12
f 8/8/13 7/7/14 19/19/15 20/20/16
f 10/10/17 9/9/18 21/21/19 22/22/20
f 12/12/21 11/11/22 23/23/23 24/24/24
f 14/14/25 13/13/26 25/25/27 26/26/28
f 16/16/29 15/15/30 27/27/31 28/28/32
f 18/18/33 17/17/34 29/29/35 30/30/36
f 20/20/37 19/19/38 31/31/39 32/32/40
f 22/22/41 21/21/42 33/33/43 34/34/44
f 24/24/45 23/23/46 35/35/47 36/36/48
f 26/26/49 25/25/50 37/37/51 38/38/52
f 28/28/53 27/27/54 39/39/55 40/40/56
f 30/30/57 29/29/58 41/41/59 42/42/60
f 32/32/61 31/31/62 43/43/63 44/44/64
f 34/34/65 33/33/66 45/45/67 46/46/68
f 36/36/69 35/35/70 47/47/71 48/48/72
f 38/38/73 37/37/74 1/49/75 2/50/76
f 40/40/77 39/39/78 3/51/79 4/52/80
f 42/42/81 41/41/82 5/53/83 6/54/84
f 44/44/85 43/43/86 7/55/87 8/56/88
f 46/46/89 45/45/90 9/57/91 10/58/92
f 48/48/93 47/47/94 11/59/95 12/60/96
f 15/15/97 3/51/98 39/39/99 27/27/100
f 16/16/101 28/28/102 40/40/103 4/4/104
f 17/17/105 5/53/106 41/41/107 29/29/108
f 18/18/109 30/30/110 42/42/111 6/6/112
f 19/19/113 7/55/114 43/43/115 31/31/116
f 20/20/117 32/32/118 44/44/119 8/8/120
f 21/21/121 9/57/122 45/45/123 33/33/124
f 22/22/125 34/34/126 46/46/127 10/10/128
f 24/24/129 36/36/130 48/48/131 12/12/132
f 23/23/133 11/59/134 47/47/135 35/35/136
f 13/13/137 1/49/138 37/37/139 25/25/140
f 14/14/141 26/26/142 38/38/143 2/2/144
